<?xml version="1.0" encoding="utf-8"?>
<!-- Generator: Adobe Illustrator 27.5.0, SVG Export Plug-In . SVG Version: 6.00 Build 0)  -->
<svg version="1.1" xmlns="http://www.w3.org/2000/svg" xmlns:xlink="http://www.w3.org/1999/xlink" x="0px" y="0px"
	 viewBox="0 0 500 500" style="enable-background:new 0 0 500 500;" xml:space="preserve">
<g id="Background_complete">
	<g>
		<g>
			<g>
				<g>
					<path style="fill:#E0E0E0;" d="M443.92,308.908H263.174c-3.232,0-5.862-2.63-5.862-5.862V39.772
						c0-3.232,2.63-5.862,5.862-5.862H443.92c3.232,0,5.862,2.629,5.862,5.862v263.273
						C449.783,306.278,447.153,308.908,443.92,308.908z M263.174,34.16c-3.095,0-5.612,2.518-5.612,5.612v263.273
						c0,3.095,2.518,5.612,5.612,5.612H443.92c3.095,0,5.612-2.518,5.612-5.612V39.772c0-3.094-2.518-5.612-5.612-5.612H263.174z"/>
				</g>
			</g>
			<g>
				<g>
					<path style="fill:#E0E0E0;" d="M235.493,308.908H54.746c-3.232,0-5.862-2.63-5.862-5.862V39.772
						c0-3.232,2.629-5.862,5.862-5.862h180.747c3.232,0,5.862,2.629,5.862,5.862v263.273
						C241.355,306.278,238.725,308.908,235.493,308.908z M54.746,34.16c-3.094,0-5.612,2.518-5.612,5.612v263.273
						c0,3.095,2.518,5.612,5.612,5.612h180.747c3.095,0,5.612-2.518,5.612-5.612V39.772c0-3.094-2.518-5.612-5.612-5.612H54.746z"/>
				</g>
			</g>
		</g>
		<g>
			<g>
				<rect x="0" y="346.162" style="fill:#E0E0E0;" width="500" height="0.25"/>
			</g>
		</g>
	</g>
	<g>
		<path style="fill:#E0E0E0;" d="M465.029,424.68c-0.435-1.12-1.496-1.887-2.673-2.129c-8.7-1.793-16.912-0.559-25.767,0.142
			c-27.067,1.022-86.536-11.063-112.955-0.805c-27.862,10.817-48.054,11.263-81.273,2.743c3.564,5.641-5.126,9.075-8.484,10.827
			c-3.55,1.852-6.758,6.583-3.599,9.541c1.014,0.949,2.41,1.365,3.799,1.376c12.149,0.095,23.305-8.182,35.323-6.969
			c6.574,0.664,12.481,4.105,18.588,6.629c6.107,2.524,13.275,4.109,19.164,1.114c4.989-2.538,8.227-7.984,13.533-9.768
			c5.124-1.722,10.669,0.448,15.572,2.723c4.903,2.274,10.21,4.753,15.496,3.626c5.286-1.127,9.463-7.909,6.036-12.089
			c11.871-1.413,23.685,2.153,35.315,4.92c8.978,2.136,18.506,3.776,27.488,2.361c3.949-0.622,4.715-5.92,1.141-7.712
			c-0.986-0.495-2.016-0.901-3.076-1.21c13.59,2.015,27.491,1.921,41.053-0.276C462.504,429.271,466.13,427.516,465.029,424.68z"/>
	</g>
	<path style="fill:#E0E0E0;" d="M427.83,435.751c0,1.323-3.75,2.395-8.375,2.395c-4.626,0-8.375-1.072-8.375-2.395
		s3.75-2.395,8.375-2.395C424.08,433.355,427.83,434.428,427.83,435.751z"/>
	<path style="fill:#E0E0E0;" d="M224.14,430.562c0,3.228-12.9,5.845-28.812,5.845s-28.812-2.617-28.812-5.845
		c0-3.228,12.9-5.845,28.812-5.845S224.14,427.334,224.14,430.562z"/>
	<rect x="51.672" y="363.345" style="fill:#E0E0E0;" width="16.06" height="0.25"/>
	<rect x="170.352" y="360.634" style="fill:#E0E0E0;" width="53.53" height="0.25"/>
	<rect x="68.732" y="372.634" style="fill:#E0E0E0;" width="36.25" height="0.25"/>
	<rect x="378.352" y="360.504" style="fill:#E0E0E0;" width="43.19" height="0.25"/>
	<rect x="430.452" y="360.504" style="fill:#E0E0E0;" width="6.33" height="0.25"/>
	<rect x="316.212" y="366.734" style="fill:#E0E0E0;" width="53.89" height="0.25"/>
	<g>
		<g>
			<path style="fill:#E6E6E6;" d="M189.458,151.41c-1.681-1.27-4.134-1.414-5.953-0.349c-2.413-4.877-9.139-7.029-13.936-4.46
				c-1.251-5.255-6.429-9.295-11.831-9.23c-5.402,0.065-10.481,4.228-11.606,9.512c-0.179,0.84-0.297,1.76-0.898,2.373
				c-0.976,0.997-2.605,0.662-3.995,0.554c-4.375-0.341-8.777,2.73-9.967,6.954l60.247-0.219
				C192.048,154.504,191.14,152.68,189.458,151.41z"/>
		</g>
	</g>
	<g>
		<g>
			<path style="fill:#F0F0F0;" d="M283.857,73.299c-2.337-1.766-5.748-1.966-8.276-0.485c-3.355-6.781-12.706-9.773-19.375-6.201
				c-1.74-7.307-8.939-12.923-16.449-12.833c-7.51,0.09-14.572,5.878-16.136,13.225c-0.248,1.168-0.413,2.447-1.248,3.299
				c-1.356,1.386-3.621,0.921-5.555,0.77c-6.082-0.474-12.202,3.796-13.857,9.668l83.761-0.305
				C287.457,77.601,286.195,75.064,283.857,73.299z"/>
		</g>
	</g>
	<g>
		<g>
			<path style="fill:#E0E0E0;" d="M176.123,101.948c-2.822-2.132-6.94-2.374-9.992-0.586c-4.051-8.187-15.341-11.8-23.393-7.486
				c-2.101-8.822-10.793-15.603-19.86-15.493c-9.068,0.109-17.594,7.097-19.482,15.967c-0.3,1.41-0.498,2.954-1.507,3.984
				c-1.638,1.673-4.372,1.111-6.706,0.929c-7.344-0.573-14.733,4.583-16.73,11.673l101.131-0.368
				C180.47,107.143,178.945,104.08,176.123,101.948z"/>
		</g>
	</g>
	<g>
		<g>
			<path style="fill:#F0F0F0;" d="M402.317,206.775c-2.358-1.781-5.798-1.983-8.349-0.49c-3.385-6.84-12.818-9.859-19.545-6.255
				c-1.755-7.371-9.017-13.036-16.594-12.945c-7.576,0.091-14.7,5.93-16.277,13.341c-0.251,1.178-0.417,2.468-1.259,3.328
				c-1.368,1.398-3.653,0.929-5.603,0.777c-6.136-0.479-12.31,3.829-13.978,9.753l84.497-0.307
				C405.948,211.115,404.675,208.557,402.317,206.775z"/>
		</g>
	</g>
	<g>
		<g>
			<path style="fill:#EBEBEB;" d="M295.127,113.639c-1.201-0.908-2.954-1.01-4.253-0.249c-1.724-3.485-6.53-5.023-9.958-3.187
				c-0.894-3.755-4.594-6.642-8.454-6.595c-3.86,0.046-7.489,3.021-8.293,6.797c-0.128,0.6-0.212,1.257-0.641,1.696
				c-0.697,0.712-1.861,0.473-2.855,0.396c-3.126-0.244-6.271,1.951-7.122,4.969l43.049-0.157
				C296.977,115.85,296.328,114.546,295.127,113.639z"/>
		</g>
	</g>
	<g>
		<g>
			<path style="fill:#E0E0E0;" d="M443.562,179.965c-1.201-0.908-2.954-1.01-4.253-0.249c-1.725-3.485-6.53-5.023-9.958-3.187
				c-0.894-3.755-4.594-6.642-8.454-6.595c-3.86,0.046-7.489,3.021-8.293,6.797c-0.128,0.6-0.212,1.257-0.641,1.696
				c-0.697,0.712-1.861,0.473-2.855,0.396c-3.126-0.244-6.271,1.951-7.122,4.969l43.049-0.157
				C445.412,182.176,444.763,180.873,443.562,179.965z"/>
		</g>
	</g>
	<g>
		<g>
			<path style="fill:#F0F0F0;" d="M119.643,188.743c-1.201-0.908-2.954-1.01-4.253-0.249c-1.725-3.485-6.53-5.023-9.958-3.187
				c-0.894-3.755-4.594-6.642-8.454-6.595c-3.86,0.046-7.489,3.021-8.293,6.797c-0.128,0.6-0.212,1.257-0.641,1.696
				c-0.697,0.712-1.861,0.473-2.855,0.396c-3.126-0.244-6.271,1.951-7.122,4.969l43.049-0.157
				C121.493,190.954,120.844,189.651,119.643,188.743z"/>
		</g>
	</g>
	<g>
		<g>
			<path style="fill:#EBEBEB;" d="M431.54,70.364c-1.201-0.908-2.954-1.01-4.253-0.249c-1.725-3.485-6.53-5.023-9.958-3.187
				c-0.894-3.755-4.594-6.642-8.454-6.595c-3.86,0.046-7.489,3.021-8.293,6.797c-0.128,0.6-0.212,1.257-0.641,1.696
				c-0.697,0.712-1.861,0.473-2.855,0.396c-3.126-0.244-6.271,1.951-7.122,4.969l43.049-0.157
				C433.39,72.575,432.741,71.271,431.54,70.364z"/>
		</g>
	</g>
	<g>
		<g>
			<path style="fill:#E0E0E0;" d="M410.759,331.855c-5.872,0.638-11.659,2.863-17.522,2.142
				c-13.051-1.606-19.803-16.107-30.228-24.121c-15.212-11.693-38.014-8.189-53.631,2.957
				c-15.618,11.145-19.041,16.986-28.673,33.58l164.72-0.033C440.812,332.226,425.558,330.249,410.759,331.855z"/>
		</g>
		<path style="fill:#E0E0E0;" d="M414.048,284.035c-0.597-3.875-2.492-7.433-5.374-10.092c-0.652,1.252-1.804,2.168-3.17,2.523
			c0.776-1.212,1.281-2.578,1.48-4.003c-2.015-1.568-4.272-2.753-6.534-3.468c6.479,0.026,12.94-0.903,19.165-2.797
			c-7.59-5.659-16.626-6.347-22.105-3.125c1.813-2.373,3.531-4.817,5.126-7.345c-0.653-0.245-1.326-0.436-2.01-0.572
			c0.834-0.263,1.71-0.365,2.582-0.303c0.605-0.934,1.228-1.909,1.867-2.918c-8.787,1.913-15.308,8.704-13.241,14.495
			c-4.824-6.492-16.711-3.638-24.46,5.007l4.356-0.235c0.467-0.996,1.121-1.892,1.926-2.641c-0.269,0.825-0.477,1.668-0.622,2.523
			c4.014-0.185,8.015-0.564,11.99-1.129c-6.253,3.651-10.616,13.001-9.257,23.692c6.219-5.927,11.332-12.893,15.157-20.557
			c-0.754,3.129-0.588,6.829,0.527,10.264c0.448,0.069,0.901,0.1,1.354,0.092c-0.364,0.211-0.743,0.394-1.135,0.547
			c0.526,1.451,1.232,2.83,2.103,4.104c0.701,0.264,1.429,0.453,2.17,0.564c-0.462,0.188-0.941,0.332-1.43,0.429
			c1.04,1.299,2.294,2.411,3.709,3.288c2.106-4.138,1.957-8.716,0.818-12.824c10.679,26.109,6.751,64.728,6.751,64.728h8.317
			c0,0,2.742-39.076-11.917-64.24C405.527,282.53,409.563,284.267,414.048,284.035z M393.024,268.552
			C393.024,268.553,393.024,268.553,393.024,268.552L393.024,268.552C393.024,268.553,393.024,268.553,393.024,268.552
			C393.024,268.553,393.024,268.553,393.024,268.552c-0.001,0-0.003,0-0.004-0.001c-0.002-0.005-0.004-0.009-0.006-0.014
			C393.018,268.543,393.021,268.548,393.024,268.552z"/>
		<path style="fill:#E0E0E0;" d="M429.174,303.574c-7.697,13.214-6.258,33.732-6.258,33.732h4.367c0,0-2.062-20.279,3.545-33.989
			c-0.598,2.157-0.676,4.561,0.429,6.734c0.743-0.461,1.401-1.044,1.947-1.727c-0.257-0.051-0.508-0.126-0.751-0.225
			c0.389-0.058,0.771-0.157,1.139-0.296c0.457-0.669,0.828-1.393,1.104-2.155c-0.206-0.08-0.405-0.176-0.596-0.287
			c0.238,0.004,0.476-0.012,0.711-0.049c0.585-1.804,0.672-3.746,0.277-5.389c2.009,4.025,4.694,7.682,7.959,10.795
			c0.714-5.614-1.578-10.523-4.861-12.441c2.087,0.296,4.188,0.496,6.296,0.593c-0.077-0.449-0.186-0.892-0.327-1.325
			c0.423,0.393,0.766,0.864,1.011,1.387l2.288,0.124c-4.069-4.54-10.311-6.038-12.844-2.629c1.086-3.041-2.339-6.607-6.953-7.611
			c0.336,0.53,0.662,1.042,0.98,1.532c0.458-0.033,0.918,0.021,1.356,0.159c-0.359,0.071-0.712,0.172-1.056,0.3
			c0.837,1.327,1.739,2.611,2.692,3.857c-2.877-1.692-7.622-1.331-11.607,1.641c3.269,0.995,6.661,1.482,10.064,1.469
			c-1.187,0.376-2.373,0.998-3.431,1.821c0.104,0.748,0.37,1.465,0.777,2.102c-0.717-0.186-1.322-0.668-1.665-1.325
			c-1.513,1.396-2.508,3.264-2.822,5.299C425.303,305.793,427.422,304.88,429.174,303.574z M433.992,297.534
			c-0.001,0.002-0.002,0.005-0.003,0.007c-0.001,0-0.001,0-0.002,0h0h0l0,0l0,0C433.989,297.539,433.99,297.536,433.992,297.534z"/>
		<path style="fill:#E0E0E0;" d="M321.754,288.624c-0.314-2.035-1.308-3.903-2.822-5.299c-0.342,0.657-0.947,1.139-1.665,1.325
			c0.408-0.637,0.673-1.354,0.777-2.102c-1.058-0.823-2.243-1.445-3.431-1.821c3.402,0.014,6.795-0.474,10.064-1.469
			c-3.986-2.972-8.73-3.333-11.607-1.641c0.952-1.246,1.854-2.53,2.691-3.857c-0.343-0.129-0.696-0.229-1.055-0.3
			c0.438-0.138,0.898-0.192,1.356-0.159c0.318-0.49,0.645-1.002,0.98-1.532c-4.614,1.004-8.039,4.57-6.953,7.611
			c-2.533-3.409-8.775-1.911-12.844,2.629l2.287-0.124c0.245-0.523,0.588-0.993,1.011-1.387c-0.141,0.433-0.25,0.876-0.327,1.325
			c2.108-0.097,4.208-0.296,6.296-0.593c-3.283,1.917-5.574,6.827-4.861,12.441c3.266-3.113,5.951-6.77,7.959-10.794
			c-0.396,1.643-0.309,3.586,0.276,5.389c0.235,0.036,0.473,0.053,0.711,0.049c-0.191,0.111-0.39,0.207-0.596,0.287
			c0.276,0.762,0.647,1.486,1.104,2.155c0.368,0.138,0.75,0.238,1.139,0.296c-0.242,0.099-0.494,0.174-0.751,0.225
			c0.546,0.682,1.205,1.266,1.947,1.727c1.106-2.173,1.027-4.577,0.43-6.734c5.607,13.71,3.545,33.989,3.545,33.989h4.367
			c0,0,1.44-20.519-6.258-33.732C317.279,287.833,319.398,288.746,321.754,288.624z M310.714,280.494L310.714,280.494
			L310.714,280.494C310.714,280.494,310.714,280.494,310.714,280.494S310.714,280.494,310.714,280.494c-0.001,0-0.001,0-0.002,0
			c-0.001-0.002-0.002-0.005-0.003-0.007C310.71,280.489,310.712,280.492,310.714,280.494z"/>
		<path style="fill:#E0E0E0;" d="M337.669,259.962c-11.724,20.126-9.531,51.378-9.531,51.378h6.652c0,0-3.141-30.887,5.399-51.769
			c-0.911,3.286-1.03,6.947,0.654,10.256c1.131-0.702,2.134-1.591,2.966-2.63c-0.391-0.078-0.774-0.193-1.143-0.343
			c0.593-0.089,1.174-0.24,1.735-0.451c0.696-1.019,1.261-2.122,1.681-3.282c-0.313-0.122-0.617-0.268-0.908-0.437
			c0.362,0.006,0.725-0.018,1.083-0.074c0.891-2.747,1.024-5.706,0.421-8.209c3.059,6.13,7.149,11.701,12.123,16.441
			c1.087-8.551-2.403-16.028-7.404-18.948c3.179,0.451,6.379,0.755,9.589,0.903c-0.116-0.684-0.283-1.358-0.498-2.018
			c0.644,0.599,1.167,1.316,1.54,2.112l3.484,0.188c-6.197-6.915-15.704-9.197-19.562-4.005c1.654-4.632-3.563-10.063-10.59-11.593
			c0.511,0.807,1.009,1.587,1.493,2.334c0.697-0.05,1.398,0.032,2.065,0.242c-0.547,0.109-1.085,0.262-1.607,0.457
			c1.275,2.022,2.649,3.977,4.099,5.875c-4.382-2.577-11.608-2.027-17.679,2.499c4.979,1.515,10.146,2.258,15.328,2.237
			c-1.809,0.572-3.614,1.52-5.225,2.774c0.159,1.14,0.563,2.232,1.184,3.202c-1.093-0.283-2.014-1.017-2.536-2.018
			c-2.305,2.126-3.82,4.972-4.298,8.071C331.773,263.342,335,261.953,337.669,259.962z M345.008,250.762
			c-0.002,0.004-0.003,0.007-0.005,0.011c-0.001,0-0.002,0-0.003,0.001c0,0,0,0,0,0c0,0,0,0,0,0l0,0c0,0,0,0,0,0
			C345.003,250.77,345.005,250.766,345.008,250.762z"/>
	</g>
	<g>
		<g>
			<path style="fill:#EBEBEB;" d="M118.337,327.128c7.597,0.825,24.154,9.44,37.843,18.833l-82.693-0.042
				C79.455,327.608,99.19,325.049,118.337,327.128z"/>
		</g>
		<path style="fill:#EBEBEB;" d="M129.423,260.092c-18.965,32.557-15.418,83.113-15.418,83.113h10.761
			c0,0-5.081-49.965,8.734-83.745c-1.473,5.315-1.667,11.237,1.058,16.591c1.83-1.135,3.452-2.574,4.798-4.254
			c-0.633-0.126-1.252-0.312-1.85-0.555c0.959-0.143,1.9-0.388,2.807-0.729c1.126-1.649,2.04-3.433,2.72-5.31
			c-0.507-0.197-0.998-0.434-1.469-0.707c0.586,0.01,1.172-0.03,1.752-0.12c1.442-4.444,1.657-9.23,0.681-13.279
			c4.949,9.916,11.564,18.928,19.611,26.596c1.758-13.832-3.887-25.928-11.976-30.652c5.143,0.73,10.319,1.221,15.512,1.46
			c-0.189-1.106-0.458-2.197-0.805-3.264c1.042,0.969,1.888,2.129,2.492,3.417l5.636,0.305
			c-10.025-11.186-25.404-14.877-31.645-6.479c2.675-7.492-5.763-16.278-17.131-18.753c0.827,1.306,1.632,2.568,2.415,3.775
			c1.128-0.081,2.261,0.052,3.34,0.392c-0.885,0.176-1.755,0.423-2.6,0.74c2.063,3.27,4.286,6.433,6.632,9.503
			c-7.088-4.169-18.779-3.279-28.599,4.043c8.054,2.451,16.413,3.652,24.795,3.618c-2.926,0.926-5.846,2.459-8.453,4.487
			c0.257,1.844,0.911,3.611,1.915,5.179c-1.768-0.458-3.258-1.645-4.102-3.264c-3.729,3.439-6.18,8.042-6.952,13.056
			C119.885,265.559,125.106,263.311,129.423,260.092z M141.295,245.21c-0.002,0.006-0.005,0.011-0.008,0.018
			c-0.002,0-0.004,0-0.005,0.001c0,0,0,0,0,0c0,0,0,0,0,0h0c0,0,0,0,0,0C141.287,245.222,141.29,245.216,141.295,245.21z"/>
		<path style="fill:#EBEBEB;" d="M102.568,293.251c-0.405-2.633-1.693-5.05-3.651-6.856c-0.443,0.85-1.226,1.473-2.154,1.714
			c0.527-0.824,0.87-1.751,1.006-2.72c-1.369-1.065-2.902-1.87-4.439-2.356c4.401,0.018,8.791-0.613,13.02-1.9
			c-5.157-3.845-11.295-4.312-15.017-2.123c1.232-1.612,2.399-3.273,3.482-4.99c-0.444-0.166-0.901-0.296-1.366-0.389
			c0.566-0.178,1.162-0.248,1.754-0.206c0.411-0.634,0.834-1.297,1.268-1.983c-5.969,1.299-10.4,5.913-8.995,9.847
			c-3.277-4.41-11.353-2.472-16.617,3.402l2.96-0.16c0.317-0.676,0.761-1.285,1.308-1.794c-0.182,0.56-0.324,1.133-0.423,1.714
			c2.727-0.126,5.445-0.383,8.146-0.767c-4.248,2.48-7.212,8.832-6.289,16.095c4.225-4.027,7.699-8.759,10.297-13.966
			c-0.512,2.126-0.399,4.639,0.358,6.973c0.304,0.047,0.612,0.068,0.92,0.063c-0.247,0.143-0.505,0.268-0.771,0.371
			c0.357,0.986,0.837,1.922,1.428,2.788c0.476,0.179,0.971,0.308,1.474,0.383c-0.314,0.128-0.639,0.225-0.971,0.291
			c0.707,0.882,1.559,1.638,2.52,2.234c1.431-2.811,1.329-5.921,0.556-8.712c7.255,17.738,4.586,43.974,4.586,43.974h5.65
			c0,0,1.863-26.547-8.096-43.643C96.779,292.228,99.52,293.409,102.568,293.251z M88.285,282.733L88.285,282.733L88.285,282.733
			L88.285,282.733L88.285,282.733c-0.001,0-0.002,0-0.003,0c-0.001-0.003-0.003-0.006-0.004-0.009
			C88.28,282.726,88.282,282.73,88.285,282.733z"/>
	</g>
</g>
<g id="Background_simple" style="display:none;">
	<g style="display:inline;">
		<path style="fill:#407BFF;" d="M185.766,91.826c-21.564,2.847-42.358,8.907-60.801,18.413
			c-21.737,11.204-43.946,28.659-37.386,51.49c12.11,42.149,70.206,42.917,58.607,71.257c-13.139,32.101-4.328,69.757,54.63,80.228
			c111.982,19.889,247.351-96.484,209.331-160.43C386.477,112.975,300.266,76.712,185.766,91.826z"/>
		<path style="opacity:0.9;fill:#FFFFFF;" d="M185.766,91.826c-21.564,2.847-42.358,8.907-60.801,18.413
			c-21.737,11.204-43.946,28.659-37.386,51.49c12.11,42.149,70.206,42.917,58.607,71.257c-13.139,32.101-4.328,69.757,54.63,80.228
			c111.982,19.889,247.351-96.484,209.331-160.43C386.477,112.975,300.266,76.712,185.766,91.826z"/>
	</g>
</g>
<g id="Shadow">
	<g>
		<g>
			<path style="fill:#F5F5F5;" d="M404.812,464.529c0,4.506-73.636,8.16-164.47,8.16s-164.47-3.653-164.47-8.16
				c0-4.507,73.636-8.16,164.47-8.16S404.812,460.022,404.812,464.529z"/>
		</g>
	</g>
</g>
<g id="Lines">
	<path style="fill:none;stroke:#263238;stroke-width:0.5;stroke-linecap:round;stroke-linejoin:round;stroke-miterlimit:10;" d="
		M263.875,439.892c24.845,5.027,51.064,3.066,74.885-5.6"/>
	<path style="fill:none;stroke:#263238;stroke-width:0.5;stroke-linecap:round;stroke-linejoin:round;stroke-miterlimit:10;" d="
		M298.123,450.48c10.09,1.456,20.567,0.122,29.97-3.816"/>
</g>
<g id="Sun">
	<g id="freepik--Sun--inject-5_00000148626302046756459830000015188124268162779321_">
		<g>
			<g>
				<path style="fill:#407BFF;" d="M391.824,112.43c0,2.992-4.326,5.368-5.065,8.122c-0.738,2.755,1.77,7.072,0.331,9.562
					c-1.439,2.49-6.4,2.443-8.454,4.487c-2.054,2.045-1.96,6.996-4.487,8.454s-6.712-1.089-9.561-0.331
					c-2.85,0.757-5.141,5.065-8.123,5.065c-2.982,0-5.368-4.326-8.122-5.065c-2.755-0.738-7.062,1.78-9.562,0.331
					c-2.499-1.448-2.433-6.4-4.487-8.454c-2.054-2.054-6.987-1.95-8.454-4.487c-1.467-2.537,1.089-6.74,0.331-9.58
					c-0.757-2.84-5.065-5.131-5.065-8.123c0-2.992,4.326-5.358,5.065-8.113c0.738-2.755-1.77-7.072-0.331-9.562
					c1.439-2.49,6.4-2.442,8.454-4.497c2.054-2.054,1.96-6.986,4.487-8.454c2.528-1.467,6.712,1.098,9.561,0.331
					s5.141-5.055,8.123-5.055c2.982,0,5.368,4.326,8.122,5.055c2.755,0.729,7.062-1.77,9.562-0.331
					c2.499,1.439,2.433,6.4,4.487,8.454c2.054,2.054,6.987,1.96,8.454,4.497c1.467,2.537-1.089,6.712-0.331,9.562
					C387.516,107.148,391.824,109.448,391.824,112.43z"/>
			</g>
			<g style="opacity:0.8;enable-background:new    ;">
				<path style="fill:#FFFFFF;" d="M391.824,112.43c0,2.992-4.326,5.368-5.065,8.122c-0.738,2.755,1.77,7.072,0.331,9.562
					c-1.439,2.49-6.4,2.443-8.454,4.487c-2.054,2.045-1.96,6.996-4.487,8.454s-6.712-1.089-9.561-0.331
					c-2.85,0.757-5.141,5.065-8.123,5.065c-2.982,0-5.368-4.326-8.122-5.065c-2.755-0.738-7.062,1.78-9.562,0.331
					c-2.499-1.448-2.433-6.4-4.487-8.454c-2.054-2.054-6.987-1.95-8.454-4.487c-1.467-2.537,1.089-6.74,0.331-9.58
					c-0.757-2.84-5.065-5.131-5.065-8.123c0-2.992,4.326-5.358,5.065-8.113c0.738-2.755-1.77-7.072-0.331-9.562
					c1.439-2.49,6.4-2.442,8.454-4.497c2.054-2.054,1.96-6.986,4.487-8.454c2.528-1.467,6.712,1.098,9.561,0.331
					s5.141-5.055,8.123-5.055c2.982,0,5.368,4.326,8.122,5.055c2.755,0.729,7.062-1.77,9.562-0.331
					c2.499,1.439,2.433,6.4,4.487,8.454c2.054,2.054,6.987,1.96,8.454,4.497c1.467,2.537-1.089,6.712-0.331,9.562
					C387.516,107.148,391.824,109.448,391.824,112.43z"/>
			</g>
		</g>
		
			<ellipse transform="matrix(0.954 -0.2997 0.2997 0.954 -17.3087 111.9821)" style="fill:#407BFF;" cx="356.464" cy="112.426" rx="25.267" ry="25.267"/>
		
			<ellipse transform="matrix(0.954 -0.2997 0.2997 0.954 -17.3087 111.9821)" style="opacity:0.5;fill:#FFFFFF;enable-background:new    ;" cx="356.464" cy="112.426" rx="25.267" ry="25.267"/>
	</g>
</g>
<g id="Character">
	<g>
		<g>
			<g>
				<g>
					<g>
						<g id="freepik--fishes-1--inject-2_00000119085821624601153380000010803158431135956145_">
							<path style="fill:#263238;" d="M165.516,328.433c0,0-9.909,3.432-9.516,4.411c0.393,0.979,7.089,4.705,7.089,4.705
								l-0.485,1.821c0,0-6.747,4.157-6.333,5.469c0.413,1.312,2.616,1.559,2.616,1.559c-0.284,5.244-0.199,10.082,2.583,14.591
								l2.912,0.389l2.654,1.113c0,0,6.008-5.773,8.051-10.13c0,0,2.846,1.514,3.262,0.382c0.416-1.132-2.45-9.321-2.45-9.321
								l-7.83-13.79L165.516,328.433z"/>
							<path style="fill:#263238;" d="M178.99,331.36c0,0,7.165,9.39,5.227,9.304c-0.934,0.777-3.166,0.532-4.158-1.102
								l-2.481-4.518L178.99,331.36z"/>
							<path style="fill:#407BFF;" d="M175.525,313.476c0,0-20.146,13.993-12.978,48.737c0.172,1.561-0.248,3.13-1.177,4.397
								c0.551,1.049,1.849,1.453,2.898,0.902c0.05-0.026,0.099-0.055,0.147-0.085c0.077-1.692,0.516-3.349,1.29-4.856
								c0,0,8.393-8.333,13.164-26.255c4.77-17.922-1.988-23.934-1.988-23.934l0.591,2.916L175.525,313.476z"/>
							<path style="opacity:0.3;fill:#FFFFFF;" d="M161.375,366.563c0.929-1.267,1.349-2.835,1.177-4.397
								c-7.168-34.745,12.978-48.738,12.978-48.738l1.298,1.215l-14.115,52.997C162.147,367.464,161.669,367.079,161.375,366.563z"
								/>
							<path style="opacity:0.3;" d="M169.513,321.923c0,0,2.582,7.388,9.504,2.532c0,0-2.876,4.386-6.372,3.185
								C169.149,326.439,169.513,321.923,169.513,321.923z"/>
							<path style="fill:#263238;" d="M173.486,320.833c0.736-0.005,1.326-0.399,1.261-0.998c-0.065-0.599-0.659-0.988-1.395-0.983
								c-0.736,0.005-1.326,0.399-1.266,0.982C172.146,320.418,172.718,320.83,173.486,320.833z"/>
						</g>
					</g>
					<path style="fill:#263238;" d="M171.86,330.021l1.121,0.002c0,0,2.223,7.84,0.044,9.803c-1.068,0.962-2.997,6.532-4.392,6.747
						C167.237,346.786,171.86,330.021,171.86,330.021z"/>
				</g>
				<path style="fill:#263238;" d="M162.205,364.397c0,0-10.024,6.147-9.712,7.318c0.312,1.17,7.199-2.157,8.687-1.758
					c1.488,0.399,3.954,6.747,5.045,6.71c1.091-0.037-1.649-11.614-1.649-11.614l-1.117-0.931L162.205,364.397z"/>
			</g>
			<g>
				<g>
					<g>
						<g id="freepik--fishes-1--inject-2_00000083060477118280385480000001731630465113222038_">
							<path style="fill:#263238;" d="M163.794,348.137c0,0,5.526-8.912,4.604-9.424c-0.923-0.512-8.468,0.819-8.468,0.819
								l-0.772-1.719c0,0,2.615-7.48,1.467-8.238c-1.148-0.758-3.013,0.44-3.013,0.44c-3.086-4.249-6.203-7.949-11.205-9.695
								l-2.506,1.534l-2.761,0.81c0,0-1.023,8.269,0.14,12.939c0,0-3.163,0.619-2.773,1.76c0.391,1.141,7.779,5.689,7.779,5.689
								l14.773,5.765L163.794,348.137z"/>
							<path style="fill:#263238;" d="M151.492,354.362c0,0-11.482-2.769-9.924-3.925c0.235-1.193,2.122-2.409,3.921-1.767
								l4.775,1.942L151.492,354.362z"/>
							<path style="fill:#407BFF;" d="M165.459,366.057c0,0,6.811-23.564-20.662-46.009c-1.118-1.103-1.781-2.586-1.859-4.154
								c-1.089-0.467-2.351,0.038-2.818,1.127c-0.022,0.052-0.043,0.105-0.061,0.159c1.008,1.362,1.711,2.924,2.061,4.582
								c0,0-1.259,11.76,6.34,28.677c7.599,16.918,16.636,17.322,16.636,17.322l-2.297-1.89L165.459,366.057z"/>
							<path style="opacity:0.3;fill:#FFFFFF;" d="M142.963,315.933c0.078,1.569,0.741,3.051,1.859,4.154
								c27.473,22.445,20.662,46.009,20.662,46.009l-1.774-0.124l-22.466-50.032C141.796,315.72,142.41,315.717,142.963,315.933z"/>
							<path style="opacity:0.3;" d="M164.798,355.71c0,0-6.663-4.106-8.973,4.029c0,0-0.534-5.218,2.937-6.49
								C162.233,351.976,164.798,355.71,164.798,355.71z"/>
							<path style="fill:#263238;" d="M162.402,359.061c-0.568,0.468-0.777,1.146-0.35,1.57c0.428,0.424,1.134,0.351,1.702-0.117
								c0.568-0.468,0.777-1.146,0.363-1.561C163.703,358.538,162.999,358.579,162.402,359.061z"/>
						</g>
					</g>
					<path style="fill:#263238;" d="M157.87,350.905l-0.871,0.706c0,0-6.669-4.683-6.216-7.581c0.222-1.421-1.793-6.96-0.846-8.006
						C150.885,334.978,157.87,350.905,157.87,350.905z"/>
				</g>
				<path style="fill:#263238;" d="M143.685,318.137c0,0,3.903-11.092,2.923-11.804c-0.98-0.712-4.227,6.213-5.633,6.842
					c-1.407,0.629-7.324-2.743-8.147-2.026c-0.823,0.717,8.603,7.974,8.603,7.974l1.454,0.018L143.685,318.137z"/>
			</g>
			<g>
				<g>
					<path style="fill:#263238;" d="M181.089,390.205l6.674-51.631h-54.753l6.673,51.631c-0.578,0.164-1.013,0.676-1.013,1.305
						c0,0.759,0.621,1.38,1.38,1.38h40.673c0.759,0,1.38-0.621,1.38-1.38C182.102,390.881,181.667,390.369,181.089,390.205z"/>
					<path style="opacity:0.4;fill:#FFFFFF;" d="M181.089,390.205l6.674-51.631h-54.753l6.673,51.631
						c-0.578,0.164-1.013,0.676-1.013,1.305c0,0.759,0.621,1.38,1.38,1.38h40.673c0.759,0,1.38-0.621,1.38-1.38
						C182.102,390.881,181.667,390.369,181.089,390.205z"/>
				</g>
				<polygon style="opacity:0.2;" points="187.762,338.574 133.009,338.574 133.967,345.982 187.239,342.622 				"/>
				<g>
					<path style="fill:#263238;" d="M191.515,336.132h-4.248c-1.094-13.877-12.728-24.837-26.881-24.837
						c-14.153,0-25.787,10.959-26.881,24.837h-4.248c-1.175,0-2.136,0.961-2.136,2.136c0,1.175,0.961,2.136,2.136,2.136h62.258
						c1.175,0,2.136-0.961,2.136-2.136C193.651,337.093,192.69,336.132,191.515,336.132z M160.386,312.497
						c13.49,0,24.572,10.423,25.663,23.635h-51.327C135.814,322.92,146.896,312.497,160.386,312.497z"/>
					<path style="opacity:0.4;fill:#FFFFFF;" d="M191.515,336.132h-4.248c-1.094-13.877-12.728-24.837-26.881-24.837
						c-14.153,0-25.787,10.959-26.881,24.837h-4.248c-1.175,0-2.136,0.961-2.136,2.136c0,1.175,0.961,2.136,2.136,2.136h62.258
						c1.175,0,2.136-0.961,2.136-2.136C193.651,337.093,192.69,336.132,191.515,336.132z M160.386,312.497
						c13.49,0,24.572,10.423,25.663,23.635h-51.327C135.814,322.92,146.896,312.497,160.386,312.497z"/>
				</g>
			</g>
			<g style="opacity:0.5;">
				<path style="fill:#FFFFFF;" d="M142.716,348.694c0.98,2.552,2.315,5.121,4.565,6.654c2.097,1.507,5.264,2.006,7.289,0.181
					c0.913-0.656,1.051-1.747,1.899-2.466c1.029-0.798,2.663-0.537,3.359,0.588c2.02,3.078,1.258,7.057,1.43,10.335
					c0.05,2.516,1.009,5.447,3.612,6.217c1.182,0.363,2.47-0.063,3.392-0.939c3.093-2.986,2.194-7.588,3.526-11.459
					c0.893-2.534,3.365-5.219,6.269-4.565c-2.854-0.413-5.073,2.234-5.802,4.715c-1.263,4.319,0.005,11.126-5.338,13.096
					c-2.268,0.733-4.662-0.834-5.649-2.817c-2.321-4.443,0.43-9.916-2.185-14.106c-0.601-0.979-2.179-0.857-2.607,0.278
					c-1.79,3.56-6.666,3.666-9.48,1.335C144.72,353.978,143.49,351.317,142.716,348.694L142.716,348.694z"/>
			</g>
			<circle style="opacity:0.5;fill:none;stroke:#FFFFFF;stroke-miterlimit:10;" cx="154.679" cy="371.248" r="2.193"/>
		</g>
		<g>
			<g>
				<g>
					<path style="fill:#FFBEB8;" d="M161.125,196.324l27.504,3.057c0,0,20.283-22.616,20.283-22.072
						c0,0.543,7.398,21.84,7.398,21.84s-17.721,17.202-23.516,18.869c-5.795,1.667-32.554-11.517-32.554-11.517L161.125,196.324z"/>
					<path style="fill:#FFBEB8;" d="M165.026,198.081c0,0-9.367-6.853-11.843-5.936c-2.476,0.917-14.548,2.604-13.052,5.844
						c0.193,0.418,4.451,0.071,4.571,0.433c0.126,0.379-2.617,0.576-3.581,1.596c-1.25,1.323,1.478,5.605,3.551,5.482
						c4.549-0.27,8.036-1.04,8.036-1.04s5.664,3.675,9.603,2.871C166.25,206.528,165.026,198.081,165.026,198.081z"/>
					
						<path style="opacity:0.2;fill:none;stroke:#000000;stroke-width:0.5;stroke-linecap:round;stroke-linejoin:round;stroke-miterlimit:10;" d="
						M160.386,203.807c-2.936,0.001-5.744-2.128-6.534-4.956c-2.136,0.801-4.386,1.297-6.66,1.469
						c-0.59,0.044-1.263,0.036-1.667-0.395c-0.417-0.445-0.354-1.187-0.017-1.695c0.337-0.508,0.882-0.834,1.417-1.128
						c2.451-1.347,5.075-2.38,7.786-3.068"/>
					<path style="fill:#FFBEB8;" d="M153.183,192.145c0,0-12.006,0.391-12.854,1.604c-0.848,1.213,5.232,0.782,5.232,0.782
						L153.183,192.145z"/>
				</g>
				<g>
					<g>
						<path style="fill:#407BFF;" d="M238.288,172.259c-2.571,22.807-33.97,42.101-33.97,42.101
							c-6.657-0.73-13.215-11.75-14.152-18.964c0,0,19.265-26.966,29.037-32.301C228.25,158.155,239.459,161.873,238.288,172.259z"
							/>
					</g>
				</g>
				<g style="opacity:0.3;">
					<g>
						<path d="M238.288,172.259c-2.571,22.807-33.97,42.101-33.97,42.101c-6.657-0.73-13.215-11.75-14.152-18.964
							c0,0,19.265-26.966,29.037-32.301C228.25,158.155,239.459,161.873,238.288,172.259z"/>
					</g>
				</g>
				<path style="opacity:0.2;" d="M205.598,213.59l5.536-29.485l-10.337,28.961c0,0,1.457,1.276,3.522,1.294
					C204.433,214.361,205.598,213.59,205.598,213.59z"/>
			</g>
			<g>
				<g>
					<path style="fill:#407BFF;" d="M232.228,318.132c5.659-21.807,20.444-47.803,11.095-68.802l-40.065-9.296
						c0,0-1.564,52.393-1.844,72.79c-0.294,21.209,4.194,47.625,4.194,47.625l22.783,0.242
						C228.391,360.691,230.901,342.609,232.228,318.132z"/>
					<path style="opacity:0.3;fill:#FFFFFF;" d="M232.228,318.132c5.659-21.807,20.444-47.803,11.095-68.802l-40.065-9.296
						c0,0-1.564,52.393-1.844,72.79c-0.294,21.209,4.194,47.625,4.194,47.625l22.783,0.242
						C228.391,360.691,230.901,342.609,232.228,318.132z"/>
					<path style="opacity:0.2;" d="M243.463,269.984c0.19,5.04-0.076,10.221-0.626,15.44c-1.983,6.86-4.517,13.731-6.795,20.393
						C233.063,286.952,233.053,264.965,243.463,269.984z"/>
					<path style="fill:#407BFF;" d="M274.795,311.075c1.971-22.049,2.455-53.938,2.686-73.923l-44.716,10.976
						c0,0,5.31,45.032,9.285,65.375c4.13,21.152,8.799,47.244,8.799,47.244l22.946,0.877
						C273.796,361.623,275.943,338.004,274.795,311.075z"/>
					<path style="opacity:0.2;" d="M204.196,300.521c-0.98,0-1.778,0.392-2.655,0.956c-0.253,11.003-0.192,21.258,0.626,30.712
						c0.651,0.294,1.331,0.45,2.03,0.45c4.75,0,8.601-7.19,8.601-16.059C212.798,307.711,208.947,300.521,204.196,300.521z"/>
					<path style="opacity:0.2;" d="M242.747,302.467c-0.967,0.159-1.611,0.64-2.386,1.338c1.839,10.783,3.885,20.936,5.523,30.24
						c0.69,0.184,1.386,0.228,2.076,0.114c4.688-0.771,7.32-8.491,5.881-17.242C252.401,308.165,247.434,301.696,242.747,302.467z"
						/>
					<path style="opacity:0.3;fill:#FFFFFF;" d="M274.795,311.075c1.971-22.049,2.455-53.938,2.686-73.923l-44.716,10.976
						c0,0,5.31,45.032,9.285,65.375c4.13,21.152,8.799,47.244,8.799,47.244l22.946,0.877
						C273.796,361.623,275.943,338.004,274.795,311.075z"/>
				</g>
				<g>
					<g>
						<g>
							<g>
								<g>
									<g>
										<g>
											<path style="fill:#263238;" d="M227.782,378.981c-0.114,1.249,1.975,6.89,1.542,11.301
												c-0.102,1.028-0.197,2.001-0.28,2.854l-0.002,0.001c-0.185,1.895-0.315,3.197-0.315,3.197l-7.835,0.068
												c0,0-1.591-0.828-2.521-0.708c-0.926,0.122-4.147,0.765-4.147,0.765l-20.806,0.179c0.159-0.874,0.357-1.651,0.585-2.342
												c0.278-0.842,0.603-1.556,0.966-2.161c1.271-2.115,3.023-2.878,4.935-3.015c2.912-0.208,7.501-3.52,7.501-3.52
												l-3.936-27.926l26.121-0.667L227.782,378.981z"/>
										</g>
									</g>
								</g>
							</g>
						</g>
					</g>
					<path style="opacity:0.2;" d="M218.371,395.694c0.93-0.12,2.521,0.708,2.521,0.708l7.835-0.068c0,0,0.13-1.302,0.315-3.196
						l0.002-0.001c0.031-0.313,0.064-0.657,0.097-0.999c-0.768,0.1-1.507,0.219-1.507,0.219l-5.084-3.728l-3.389-0.904l-2.372,0.452
						l-2.034,1.502l-0.678,2.073h-3.615l-2.431,1.072c-3.841-1.243-4.654-1.259-4.654-1.259l-1.979,1.356
						c-0.591,0-6.187,0.791-6.526,0.904l-0.679-0.066c-0.066,0.173-0.13,0.35-0.192,0.536c-0.228,0.691-0.427,1.469-0.585,2.342
						l20.806-0.179C214.223,396.458,217.445,395.815,218.371,395.694z"/>
					<path style="opacity:0.2;" d="M220.809,386.069l1.032,1.032h1.067l0.723-1.032l-0.654-1.135c0,0-0.413-0.413-0.516-0.413
						S220.809,386.069,220.809,386.069z"/>
					<polygon style="opacity:0.2;" points="211.279,388.389 209.979,389.272 211.279,390.324 212.798,390.324 212.587,389.062 					
						"/>
					<polygon style="opacity:0.2;" points="211.194,387.211 211.791,387.723 212.129,386.958 211.868,386.574 211.349,386.492 					
						"/>
				</g>
				<g>
					<g>
						<g>
							<g>
								<g>
									<g>
										<g>
											<path style="fill:#263238;" d="M273.502,378.981c-0.114,1.249,1.974,6.89,1.542,11.301
												c-0.102,1.028-0.197,2.001-0.28,2.854l-0.002,0.001c-0.185,1.895-0.315,3.197-0.315,3.197l-7.835,0.068
												c0,0-1.591-0.828-2.521-0.708c-0.926,0.122-4.147,0.765-4.147,0.765l-20.806,0.179c0.159-0.874,0.357-1.651,0.585-2.342
												c0.278-0.842,0.603-1.556,0.966-2.161c1.271-2.115,3.023-2.878,4.935-3.015c2.912-0.208,7.501-3.52,7.501-3.52
												l-3.936-27.926l26.121-0.667L273.502,378.981z"/>
										</g>
									</g>
								</g>
							</g>
						</g>
					</g>
					<path style="opacity:0.2;" d="M264.091,395.694c0.93-0.12,2.521,0.708,2.521,0.708l7.835-0.068c0,0,0.13-1.302,0.315-3.196
						l0.002-0.001c0.031-0.313,0.064-0.657,0.097-0.999c-0.768,0.1-1.507,0.219-1.507,0.219l-5.084-3.728l-3.389-0.904l-2.372,0.452
						l-2.034,1.502l-0.678,2.073h-3.615l-2.431,1.072c-3.841-1.243-4.654-1.259-4.654-1.259l-1.979,1.356
						c-0.591,0-6.187,0.791-6.526,0.904l-0.679-0.066c-0.066,0.173-0.13,0.35-0.192,0.536c-0.228,0.691-0.427,1.469-0.585,2.342
						l20.806-0.179C259.944,396.458,263.165,395.815,264.091,395.694z"/>
					<path style="opacity:0.2;" d="M266.529,386.069l1.032,1.032h1.067l0.723-1.032l-0.654-1.135c0,0-0.413-0.413-0.516-0.413
						C268.078,384.521,266.529,386.069,266.529,386.069z"/>
					<polygon style="opacity:0.2;" points="257,388.389 255.699,389.272 257,390.324 258.518,390.324 258.308,389.062 					"/>
					<polygon style="opacity:0.2;" points="256.915,387.211 257.511,387.723 257.849,386.958 257.589,386.574 257.069,386.492 					
						"/>
				</g>
			</g>
			<g>
				<path style="fill:#407BFF;" d="M227.578,159.157c12.004-1.252,28.036-1.101,40.475,0.644
					c7.764,1.089,13.246,5.921,12.305,21.824c-1.909,32.258,1.229,64.714-2.876,76.312c0,0-59.056,8.952-76.082-7.445
					c2.919-36.133,8.953-70.197,15.311-83.615C218.744,162.586,222.855,159.65,227.578,159.157z"/>
				<path style="opacity:0.3;" d="M227.578,159.157c12.004-1.252,28.036-1.101,40.475,0.644c7.764,1.089,13.246,5.921,12.305,21.824
					c-1.909,32.258,1.229,64.714-2.876,76.312c0,0-59.056,8.952-76.082-7.445c2.919-36.133,8.953-70.197,15.311-83.615
					C218.744,162.586,222.855,159.65,227.578,159.157z"/>
			</g>
			<g>
				<g>
					<path style="fill:#407BFF;" d="M247.103,110.053c-7.948,1.436-17.813,11.355-17.813,11.355s-0.103,8.68,9.151,14.619
						c9.254,5.939,16.617,5.816,20.511,2.159c3.219-3.022,2.689-14.855,2.408-18.869c-0.071-1.017-0.418-2.008-1.059-2.801
						c-1.393-1.721-3.429-2.873-5.707-3.176C254.595,113.34,252.366,109.193,247.103,110.053z"/>
					<path style="opacity:0.2;" d="M247.103,110.053c-7.948,1.436-17.813,11.355-17.813,11.355s-0.103,8.68,9.151,14.619
						c9.254,5.939,16.617,5.816,20.511,2.159c3.219-3.022,2.689-14.855,2.408-18.869c-0.071-1.017-0.418-2.008-1.059-2.801
						c-1.393-1.721-3.429-2.873-5.707-3.176C254.595,113.34,252.366,109.193,247.103,110.053z"/>
					<path style="opacity:0.2;" d="M240.974,112.429c0.229-0.126,14.701,3.108,20.603,12.863l-0.01,2.791l-22.415-14.573
						L240.974,112.429z"/>
					<path style="fill:#407BFF;" d="M234.801,112.425c-16.439-2.449-18.422,18.151-0.556,29.087
						c17.866,10.936,36.916,9.455,36.593,2.105C270.47,135.26,259.903,116.197,234.801,112.425z"/>
					<path style="opacity:0.2;" d="M258.88,133.384c0,0,2.477,4.26,2.734,7.911c0.351,4.992-4.297,8.028-4.297,8.028l-3.74-0.43
						l0.486-6.383L258.88,133.384z"/>
				</g>
				<path style="fill:#263238;" d="M234.6,124.577c-4.405,3.329-6.099,5.021-6.099,5.021s1.285,0.395,2.155,0.004
					c-1.819,3.167-1.107,7.497-0.198,8.782C234.947,134.173,234.6,124.577,234.6,124.577z"/>
				<path style="opacity:0.5;fill:#FFFFFF;" d="M234.6,124.577c-4.405,3.329-6.099,5.021-6.099,5.021s1.285,0.395,2.155,0.004
					c-1.819,3.167-1.107,7.497-0.198,8.782C234.947,134.173,234.6,124.577,234.6,124.577z"/>
				<path style="fill:#FFBEB8;" d="M256.049,158.653c-3.002-2.692-2.865-7.304-2.503-14.082l-18.42,9.939
					c0.948,1.891,1.186,3.612,0.852,5.256l4.474,8.738C240.452,168.504,256.436,159.18,256.049,158.653z"/>
				<path style="opacity:0.2;" d="M235.397,155.086l14.544-3.638c-3.673,5.782-10.293,8.945-13.85,7.547
					C236.202,157.752,235.992,156.466,235.397,155.086z"/>
				<path style="fill:#FFBEB8;" d="M241.418,121.924c7.044,0.694,16.934,6.952,16.071,14.572
					c-1.003,8.854-3.329,14.591-9.356,17.558c-11.974,5.895-17.821,0.209-18.798-8.9
					C228.455,136.956,231.461,120.943,241.418,121.924z"/>
				<path style="fill:#263238;" d="M253.488,127.538c0.458,3.808-0.084,7.518-2.126,8.549c2.742,0.083,3.731-0.448,3.731-0.448
					s-4.869,3.694-1.604,6.067c3.739-2.135,6.257-5.76,6.257-5.76S259.112,131.039,253.488,127.538z"/>
				<path style="opacity:0.2;" d="M244.8,136.05c0,0,1.921-0.658,3.356,0.241C246.309,136.525,244.8,136.05,244.8,136.05z"/>
				<path style="opacity:0.2;" d="M244.796,136.853c0,0,1.84-0.223,2.891,0.971C246.011,137.648,244.796,136.853,244.796,136.853z"
					/>
				<path style="fill:#FF7C77;" d="M236.128,136.467l0.043,6.531c0,0-2.102,0.52-3.348-0.622
					C233.528,139.032,236.128,136.467,236.128,136.467z"/>
				<path style="fill:#263238;" d="M253.488,127.538c-3.299-0.146-12.077-2.637-12.077-2.637s1.227-0.87,2.59-0.989
					c-4.409,0.079-6.765,2.254-12.961,1.028c0.921-1.661,5.858-4.142,12.326-3.059C249.834,122.963,253.488,127.538,253.488,127.538
					z"/>
				<path style="opacity:0.5;fill:#FFFFFF;" d="M253.488,127.538c0.458,3.808-0.084,7.518-2.126,8.549
					c2.742,0.083,3.731-0.448,3.731-0.448s-4.869,3.694-1.604,6.067c3.739-2.135,6.257-5.76,6.257-5.76
					S259.112,131.039,253.488,127.538z"/>
				<path style="opacity:0.5;fill:#FFFFFF;" d="M253.488,127.538c-3.299-0.146-12.077-2.637-12.077-2.637s1.227-0.87,2.59-0.989
					c-4.409,0.079-6.765,2.254-12.961,1.028c0.921-1.661,5.858-4.142,12.326-3.059C249.834,122.963,253.488,127.538,253.488,127.538
					z"/>
				<path style="fill:#FFBEB8;" d="M260.01,142.886c-0.913,2.226-2.772,3.812-4.613,4.532c-2.769,1.083-3.502-1.904-3.003-4.683
					c0.449-2.501,1.456-5.506,4.365-5.402C259.625,137.436,261.053,140.341,260.01,142.886z"/>
				<path style="fill:#263238;" d="M244.429,136.839c-0.08,0.91-0.628,1.6-1.223,1.541c-0.595-0.059-1.012-0.843-0.932-1.753
					c0.08-0.91,0.628-1.6,1.223-1.541C244.092,135.145,244.509,135.929,244.429,136.839z"/>
				<path style="fill:#263238;" d="M234.988,135.924c-0.08,0.91-0.628,1.599-1.223,1.541c-0.595-0.059-1.012-0.843-0.932-1.753
					c0.08-0.91,0.628-1.6,1.223-1.541C234.651,134.229,235.068,135.014,234.988,135.924z"/>
				<path style="fill:#263238;" d="M245.329,132.148c-0.142,0.044-0.304,0.012-0.422-0.098c-1.4-1.305-2.935-0.956-2.95-0.953
					c-0.23,0.055-0.462-0.086-0.52-0.315c-0.057-0.229,0.084-0.459,0.312-0.514c0.081-0.02,2.005-0.458,3.741,1.162
					c0.174,0.161,0.183,0.431,0.023,0.602C245.461,132.089,245.398,132.127,245.329,132.148z"/>
				<path style="fill:#263238;" d="M253.644,139.792c0,0-1.201-1.131-2.624,0.767c-1.423,1.898-0.246,4.616-4.535,3.34
					c-3.677-1.094-5.187-1.575-7.397,0.092c-4.267-0.419-8.209,0.088-9.197,0.76c-0.949-1.26-0.637-3.125-0.538-5.895
					c-1.33,5.629-3.112,10.484-1.477,12.591c0,0,0.452-0.845,0.727-1.083c-0.002,2.57,1.778,5.623,3.952,6.888
					c0.269-0.936,0.269-1.582,0.269-1.582s2.031,1.146,6.376,1.047c-0.231,0.473-0.576,1.029-1.018,1.291
					c1.41-0.147,4.262-0.9,5.959-1.862c0.22-0.043,0.431-0.079,0.659-0.128c-0.502,0.751-0.594,1.463-0.449,2.122
					c7.628-2.119,8.625-9.32,8.053-12.165C251.768,142.812,253.644,139.792,253.644,139.792z"/>
				<path style="opacity:0.5;fill:#FFFFFF;" d="M253.644,139.792c0,0-1.201-1.131-2.624,0.767c-1.423,1.898-0.246,4.616-4.535,3.34
					c-3.677-1.094-5.187-1.575-7.397,0.092c-4.267-0.419-8.209,0.088-9.197,0.76c-0.949-1.26-0.637-3.125-0.538-5.895
					c-1.33,5.629-3.112,10.484-1.477,12.591c0,0,0.452-0.845,0.727-1.083c-0.002,2.57,1.778,5.623,3.952,6.888
					c0.269-0.936,0.269-1.582,0.269-1.582s2.031,1.146,6.376,1.047c-0.231,0.473-0.576,1.029-1.018,1.291
					c1.41-0.147,4.262-0.9,5.959-1.862c0.22-0.043,0.431-0.079,0.659-0.128c-0.502,0.751-0.594,1.463-0.449,2.122
					c7.628-2.119,8.625-9.32,8.053-12.165C251.768,142.812,253.644,139.792,253.644,139.792z"/>
				<path style="fill:none;stroke:#263238;stroke-width:0.5;stroke-linecap:round;stroke-linejoin:round;stroke-miterlimit:10;" d="
					M238.49,145.487c1.475,0.142,2.684-0.493,3.924-1.491"/>
				
					<path style="opacity:0.2;fill:none;stroke:#000000;stroke-width:0.5;stroke-linecap:round;stroke-linejoin:round;stroke-miterlimit:10;" d="
					M258.197,140.926c-0.311-0.563-1.024-0.822-1.66-0.724c-0.635,0.098-1.191,0.497-1.616,0.979
					c-0.51,0.579-0.865,1.293-1.019,2.049"/>
				<path style="fill:#263238;" d="M230.193,131.441c-0.077-0.024-0.149-0.07-0.205-0.139c-0.15-0.184-0.125-0.454,0.057-0.603
					c1.818-1.5,3.691-0.906,3.779-0.89c0.224,0.072,0.35,0.314,0.28,0.539c-0.07,0.225-0.307,0.348-0.53,0.279
					c-0.077-0.028-1.526-0.467-2.986,0.737C230.474,131.458,230.325,131.482,230.193,131.441z"/>
			</g>
			<g>
				<path style="fill:none;stroke:#000000;stroke-width:0.5;stroke-miterlimit:10;" d="M247.18,209.038
					c-9.354,14.309-32.375,33.838-62.291,28.931c-29.915-4.907-34.273-38.158-34.273-38.158c0.789,12.99,5.397,25.781,14.52,35.062
					c5.389,5.482,12.965,8.476,20.607,9.309c7.642,0.833,15.381-0.355,22.818-2.3c8.702-2.276,17.246-5.657,24.386-11.128
					c7.14-5.471,12.802-13.198,14.586-22.014c-13.762,11.633-31.351,19.565-49.354,18.799c-18.003-0.766-37.901-11.858-44.52-28.618
					"/>
				
					<line style="fill:none;stroke:#000000;stroke-width:0.5;stroke-miterlimit:10;" x1="150.617" y1="203.435" x2="155.047" y2="201.981"/>
				
					<line style="fill:none;stroke:#000000;stroke-width:0.5;stroke-miterlimit:10;" x1="151.773" y1="208.681" x2="157.523" y2="206.117"/>
				
					<line style="fill:none;stroke:#000000;stroke-width:0.5;stroke-miterlimit:10;" x1="152.914" y1="214.146" x2="160.386" y2="210.208"/>
				
					<line style="fill:none;stroke:#000000;stroke-width:0.5;stroke-miterlimit:10;" x1="154.907" y1="219.249" x2="164.339" y2="214.277"/>
				
					<line style="fill:none;stroke:#000000;stroke-width:0.5;stroke-miterlimit:10;" x1="157.627" y1="225.16" x2="169.138" y2="217.579"/>
				
					<line style="fill:none;stroke:#000000;stroke-width:0.5;stroke-miterlimit:10;" x1="161.711" y1="230.995" x2="173.808" y2="220.488"/>
				
					<line style="fill:none;stroke:#000000;stroke-width:0.5;stroke-miterlimit:10;" x1="166.646" y1="236.203" x2="178.422" y2="222.787"/>
				
					<line style="fill:none;stroke:#000000;stroke-width:0.5;stroke-miterlimit:10;" x1="171.923" y1="240.28" x2="182.994" y2="224.584"/>
				
					<line style="fill:none;stroke:#000000;stroke-width:0.5;stroke-miterlimit:10;" x1="178.591" y1="242.936" x2="188.276" y2="225.899"/>
				
					<line style="fill:none;stroke:#000000;stroke-width:0.5;stroke-miterlimit:10;" x1="187.344" y1="244.326" x2="194.007" y2="227.347"/>
				<path style="fill:none;stroke:#000000;stroke-width:0.5;stroke-miterlimit:10;" d="M152.206,199.398
					c0,0,9.257,34.369,43.481,33.937c0,0,28.699,0.75,51.493-24.298"/>
				
					<line style="fill:none;stroke:#000000;stroke-width:0.5;stroke-miterlimit:10;" x1="196.729" y1="244.326" x2="199.076" y2="227.568"/>
				
					<line style="fill:none;stroke:#000000;stroke-width:0.5;stroke-miterlimit:10;" x1="204.585" y1="242.836" x2="204.585" y2="227.381"/>
				
					<line style="fill:none;stroke:#000000;stroke-width:0.5;stroke-miterlimit:10;" x1="212.445" y1="240.785" x2="209.974" y2="226.833"/>
				
					<line style="fill:none;stroke:#000000;stroke-width:0.5;stroke-miterlimit:10;" x1="223.279" y1="236.622" x2="218.538" y2="224.8"/>
				
					<line style="fill:none;stroke:#000000;stroke-width:0.5;stroke-miterlimit:10;" x1="230.614" y1="232.432" x2="224.813" y2="222.603"/>
				
					<line style="fill:none;stroke:#000000;stroke-width:0.5;stroke-miterlimit:10;" x1="238.316" y1="225.899" x2="231.684" y2="219.342"/>
				
					<line style="fill:none;stroke:#000000;stroke-width:0.5;stroke-miterlimit:10;" x1="237.073" y1="216.369" x2="243.007" y2="219.843"/>
				<circle style="fill:#407BFF;" cx="212.445" cy="240.785" r="2.807"/>
				<path style="fill:#407BFF;" d="M241.033,226.803c0,1.55-1.257,2.807-2.807,2.807c-1.55,0-2.807-1.257-2.807-2.807
					c0-1.55,1.257-2.807,2.807-2.807C239.776,223.996,241.033,225.253,241.033,226.803z"/>
				<circle style="fill:#407BFF;" cx="179.092" cy="243.479" r="2.807"/>
				<path style="fill:#407BFF;" d="M160.271,226.417c0,1.55-1.257,2.807-2.807,2.807c-1.55,0-2.807-1.257-2.807-2.807
					c0-1.55,1.257-2.807,2.807-2.807C159.015,223.61,160.271,224.867,160.271,226.417z"/>
				<path style="fill:#407BFF;" d="M154.494,201.906c0,1.55-1.257,2.807-2.807,2.807c-1.55,0-2.807-1.257-2.807-2.807
					c0-1.55,1.257-2.807,2.807-2.807C153.237,199.099,154.494,200.356,154.494,201.906z"/>
			</g>
			<g>
				<path style="fill:#FFBEB8;" d="M274.776,172.766c1.262,2.059,12.947-0.517,16.563,9.965
					c3.616,10.482,13.143,33.788,10.651,42.127c-2.492,8.339-45.632-11.741-45.632-11.741l1.152-11.408l22.173,4.552
					L274.776,172.766z"/>
				<g>
					<g>
						<path style="fill:#407BFF;" d="M271.377,160.612c21.66,7.591,33.47,44.98,33.47,44.98c-2.196,6.327-18.787,1.167-26.028,0.473
							c0,0-17.607-18.176-20.63-28.891C255.391,167.253,261.514,157.155,271.377,160.612z"/>
					</g>
				</g>
				<g style="opacity:0.3;">
					<g>
						<path d="M271.377,160.612c21.66,7.591,33.47,44.98,33.47,44.98c-2.196,6.327-18.787,1.167-26.028,0.473
							c0,0-17.607-18.176-20.63-28.891C255.391,167.253,261.514,157.155,271.377,160.612z"/>
					</g>
				</g>
				<path style="opacity:0.2;" d="M278.819,206.065l-6.183-13.235c0,0,0.824,11.828,1.544,12.181L278.819,206.065z"/>
				<path style="fill:#FFBEB8;" d="M252.455,200.457c0,0-5.292-2.611-9.482-2.829c-4.191-0.219-6.11,9.568-6.11,9.568
					c-0.354,7.245,5.88,4.849,5.88,4.849c1.082,3.861,4.775,2.43,4.775,2.43c0.844,3.897,3.537,2.333,3.537,2.333
					c0.829-4.154,5.301-3.691,5.301-3.691l10.419,4.152l16.29-8.257L252.455,200.457z"/>
			</g>
		</g>
		<g>
			<path style="fill:#A24E3F;" d="M38.546,346.521c0,0,43.371,52.271,108.877,64.52c38.715,7.24,247.595,3.226,247.595,3.226
				l29.034-42.745C424.053,371.522,195.007,365.877,38.546,346.521z"/>
			<path style="opacity:0.2;" d="M147.424,411.041c6.713,1.255,18.545,2.172,33.515,2.83l119.3,1.453
				c51.107-0.219,94.781-1.058,94.781-1.058l28.838-42.456l-1.497-0.079c-26.239,35.286-165.071,29.008-232.477,26.707
				c-97.883-3.341-151.336-51.917-151.336-51.917S81.917,398.792,147.424,411.041z"/>
		</g>
		<g>
			<g>
				<path style="fill:none;stroke:#000000;stroke-width:0.5;stroke-miterlimit:10;" d="M252.967,214.145l-3.836,1.88
					c0,0-6.888,207.73-5.664,208.309c26.15,6.542,52.316,9.425,78.538-0.632c24.612-11.426,73.409-6.11,121.935-0.981
					C443.94,423.286,252.967,214.145,252.967,214.145z"/>
				
					<line style="fill:none;stroke:#000000;stroke-width:0.5;stroke-miterlimit:10;" x1="250.363" y1="215.422" x2="319.882" y2="424.486"/>
				
					<line style="fill:none;stroke:#000000;stroke-width:0.5;stroke-miterlimit:10;" x1="251.559" y1="214.36" x2="356.076" y2="417.12"/>
				<path style="fill:none;stroke:#000000;stroke-width:0.5;stroke-miterlimit:10;" d="M243.524,407.725
					c0,0,33.947,9.715,60.997,3.737c27.051-5.978,69.847-15.13,125.951-3.256"/>
				<path style="fill:none;stroke:#000000;stroke-width:0.5;stroke-miterlimit:10;" d="M243.524,392.757
					c0,0,33.947,9.715,60.997,3.736c24.341-5.379,61.431-13.328,109.495-6.215"/>
				<path style="fill:none;stroke:#000000;stroke-width:0.5;stroke-miterlimit:10;" d="M244.18,377.969
					c0,0,33.291,9.535,60.341,3.556c21.678-4.791,53.468-11.62,94.115-8.032"/>
				<path style="fill:none;stroke:#000000;stroke-width:0.5;stroke-miterlimit:10;" d="M244.412,363.237
					c0,0,33.059,9.299,60.109,3.321c19.192-4.242,45.538-10.005,79.71-8.799"/>
				<path style="fill:none;stroke:#000000;stroke-width:0.5;stroke-miterlimit:10;" d="M244.778,348.191
					c0,0,32.693,9.376,59.744,3.398c16.367-3.617,38.497-8.396,65.852-8.976"/>
				<path style="fill:none;stroke:#000000;stroke-width:0.5;stroke-miterlimit:10;" d="M245.291,333.356
					c0,0,32.18,9.243,59.231,3.265c13.745-3.038,31.554-6.894,53.109-8.396"/>
				<path style="fill:none;stroke:#000000;stroke-width:0.5;stroke-miterlimit:10;" d="M245.88,318.665
					c0,0,31.591,8.966,58.642,2.988c10.939-2.418,24.452-5.354,40.38-7.209"/>
				<path style="fill:none;stroke:#000000;stroke-width:0.5;stroke-miterlimit:10;" d="M246.195,303.79
					c0,0,31.276,8.874,58.326,2.895c7.976-1.763,17.322-3.801,27.974-5.496"/>
				<path style="fill:none;stroke:#000000;stroke-width:0.5;stroke-miterlimit:10;" d="M246.796,288.828
					c0,0,30.675,8.867,57.726,2.889c4.992-1.103,10.043-2.359,16.092-3.526"/>
				<path style="fill:none;stroke:#000000;stroke-width:0.5;stroke-miterlimit:10;" d="M247.061,273.924
					c0,0,30.41,8.803,57.461,2.825c1.515-0.335,3.08-0.68,4.694-1.03"/>
				<path style="fill:none;stroke:#000000;stroke-width:0.5;stroke-miterlimit:10;" d="M247.585,259.082
					c0,0,25.029,7.267,50.009,3.918"/>
				<path style="fill:none;stroke:#000000;stroke-width:0.5;stroke-miterlimit:10;" d="M248.204,244.451
					c0,0,16.719,4.765,36.563,4.51"/>
				<path style="fill:none;stroke:#000000;stroke-width:0.5;stroke-miterlimit:10;" d="M248.692,229.405
					c0,0,9.106,2.663,21.888,3.93"/>
				<polyline style="fill:none;stroke:#000000;stroke-width:0.5;stroke-miterlimit:10;" points="297.833,429.784 249.131,216.025 
					274.862,429.832 				"/>
				<polyline style="fill:none;stroke:#000000;stroke-width:0.5;stroke-miterlimit:10;" points="415.64,419.822 252.967,214.145 
					383.798,417.12 				"/>
				<path style="fill:#407BFF;" d="M287.79,248.556c0,1.367-1.108,2.474-2.474,2.474c-1.367,0-2.474-1.108-2.474-2.474
					c0-1.367,1.108-2.474,2.474-2.474C286.682,246.082,287.79,247.19,287.79,248.556z"/>
				<path style="fill:#407BFF;" d="M303.696,265.523c0,1.367-1.108,2.474-2.474,2.474c-1.366,0-2.474-1.108-2.474-2.474
					c0-1.367,1.108-2.474,2.474-2.474C302.589,263.049,303.696,264.157,303.696,265.523z"/>
				<path style="fill:#407BFF;" d="M317.832,281.077c0,1.366-1.108,2.474-2.474,2.474c-1.367,0-2.474-1.108-2.474-2.474
					c0-1.367,1.108-2.474,2.474-2.474C316.724,278.602,317.832,279.71,317.832,281.077z"/>
				<path style="fill:#407BFF;" d="M335.766,299.722c0,1.367-1.108,2.474-2.474,2.474c-1.367,0-2.474-1.108-2.474-2.474
					c0-1.367,1.108-2.474,2.474-2.474C334.658,297.247,335.766,298.355,335.766,299.722z"/>
				<path style="fill:#407BFF;" d="M354.893,323.148c0,1.367-1.108,2.474-2.474,2.474c-1.367,0-2.474-1.108-2.474-2.474
					c0-1.367,1.108-2.474,2.474-2.474C353.785,320.674,354.893,321.782,354.893,323.148z"/>
				<path style="fill:#407BFF;" d="M376.488,345.623c0,1.367-1.108,2.474-2.474,2.474c-1.366,0-2.474-1.108-2.474-2.474
					c0-1.367,1.108-2.474,2.474-2.474C375.38,343.149,376.488,344.257,376.488,345.623z"/>
				<path style="fill:#407BFF;" d="M246.195,363.233c0,1.367-1.108,2.474-2.474,2.474c-1.366,0-2.474-1.108-2.474-2.474
					c0-1.367,1.108-2.474,2.474-2.474C245.087,360.759,246.195,361.867,246.195,363.233z"/>
				<path style="fill:#407BFF;" d="M244.815,337.029c-1.366,0.047-2.511-1.022-2.558-2.388c-0.047-1.366,1.022-2.511,2.388-2.558
					c1.366-0.047,2.511,1.022,2.558,2.388C247.25,335.837,246.181,336.982,244.815,337.029z"/>
				<path style="fill:#407BFF;" d="M246.195,313.542c-1.366,0.047-2.511-1.022-2.558-2.388c-0.047-1.366,1.022-2.511,2.388-2.558
					c1.366-0.047,2.511,1.022,2.558,2.388C248.63,312.35,247.561,313.496,246.195,313.542z"/>
				<path style="fill:#407BFF;" d="M246.433,287.537c-1.366,0.047-2.511-1.022-2.558-2.388c-0.047-1.366,1.022-2.511,2.388-2.558
					c1.366-0.047,2.511,1.022,2.558,2.388C248.868,286.345,247.798,287.49,246.433,287.537z"/>
				<path style="fill:#407BFF;" d="M247.382,261.555c-1.366,0.047-2.511-1.022-2.558-2.388c-0.047-1.366,1.022-2.511,2.388-2.558
					c1.366-0.047,2.511,1.022,2.558,2.388C249.817,260.363,248.748,261.508,247.382,261.555z"/>
				<path style="fill:#407BFF;" d="M248.489,234.516c-1.366,0.047-2.511-1.022-2.558-2.388c-0.047-1.366,1.022-2.511,2.388-2.558
					c1.366-0.047,2.511,1.022,2.558,2.388C250.924,233.324,249.855,234.469,248.489,234.516z"/>
				<path style="fill:#407BFF;" d="M245.999,392.757c0,1.366-1.108,2.474-2.474,2.474c-1.367,0-2.474-1.108-2.474-2.474
					c0-1.367,1.108-2.474,2.474-2.474C244.891,390.283,245.999,391.391,245.999,392.757z"/>
				<circle style="fill:#407BFF;" cx="243.524" cy="422.012" r="2.474"/>
				<path style="fill:#407BFF;" d="M393.708,365.408c0,1.367-1.108,2.474-2.474,2.474c-1.367,0-2.474-1.108-2.474-2.474
					c0-1.367,1.108-2.474,2.474-2.474C392.601,362.934,393.708,364.042,393.708,365.408z"/>
				<path style="fill:#407BFF;" d="M416.491,390.278c0,1.367-1.108,2.474-2.474,2.474c-1.367,0-2.474-1.108-2.474-2.474
					c0-1.367,1.108-2.474,2.474-2.474C415.383,387.804,416.491,388.912,416.491,390.278z"/>
				<path style="fill:#407BFF;" d="M437.733,413.406c0,1.367-1.108,2.474-2.474,2.474c-1.367,0-2.474-1.108-2.474-2.474
					c0-1.367,1.108-2.474,2.474-2.474C436.625,410.932,437.733,412.039,437.733,413.406z"/>
			</g>
			<g>
				<g>
					<g>
						<g id="freepik--fishes-1--inject-2_00000108286062977482707670000017814257887755718793_">
							<path style="fill:#263238;" d="M309.823,312.823c0,0-8.681,3.007-8.337,3.864c0.344,0.858,6.21,4.122,6.21,4.122
								l-0.425,1.595c0,0-5.911,3.642-5.549,4.791c0.362,1.149,2.292,1.365,2.292,1.365c-0.249,4.594-0.174,8.832,2.263,12.783
								l2.551,0.341l2.325,0.975c0,0,5.264-5.057,7.053-8.875c0,0,2.493,1.327,2.858,0.335c0.365-0.992-2.146-8.166-2.146-8.166
								l-6.86-12.081L309.823,312.823z"/>
							<path style="fill:#263238;" d="M321.627,315.387c0,0,6.277,8.226,4.579,8.151c-0.819,0.681-2.773,0.466-3.642-0.965
								l-2.174-3.959L321.627,315.387z"/>
							<path style="fill:#407BFF;" d="M318.591,299.719c0,0-17.65,12.259-11.37,42.698c0.151,1.368-0.217,2.742-1.031,3.852
								c0.483,0.919,1.62,1.273,2.539,0.791c0.044-0.023,0.087-0.048,0.129-0.074c0.067-1.483,0.452-2.934,1.13-4.254
								c0,0,7.353-7.301,11.533-23.002c4.179-15.701-1.741-20.968-1.741-20.968l0.518,2.554L318.591,299.719z"/>
							<path style="opacity:0.3;fill:#FFFFFF;" d="M306.195,346.229c0.814-1.11,1.182-2.484,1.031-3.852
								c-6.28-30.439,11.37-42.699,11.37-42.699l1.137,1.064l-12.366,46.431C306.871,347.018,306.452,346.681,306.195,346.229z"/>
							<path style="opacity:0.3;" d="M313.324,307.12c0,0,2.262,6.473,8.327,2.218c0,0-2.52,3.843-5.583,2.79
								C313.005,311.076,313.324,307.12,313.324,307.12z"/>
							<path style="fill:#263238;" d="M316.805,306.165c0.645-0.004,1.161-0.35,1.105-0.874c-0.057-0.524-0.577-0.865-1.222-0.861
								c-0.645,0.004-1.162,0.35-1.109,0.861C315.631,305.801,316.133,306.162,316.805,306.165z"/>
						</g>
					</g>
					<path style="fill:#263238;" d="M315.38,314.214l0.982,0.001c0,0,1.948,6.869,0.038,8.589c-0.936,0.843-2.626,5.723-3.848,5.911
						C311.331,328.902,315.38,314.214,315.38,314.214z"/>
				</g>
				<path style="fill:#263238;" d="M306.922,344.331c0,0-8.782,5.386-8.509,6.411c0.273,1.025,6.307-1.889,7.61-1.54
					c1.304,0.35,3.464,5.911,4.42,5.879c0.956-0.033-1.444-10.175-1.444-10.175l-0.979-0.816L306.922,344.331z"/>
			</g>
			<g>
				<g>
					<g>
						<g id="freepik--fishes-1--inject-2_00000176040372351923207420000008648074583636591763_">
							<path style="fill:#263238;" d="M296.02,372.365c0,0-6.612-4.296-7.011-3.611c-0.4,0.685,0.481,6.379,0.481,6.379
								l-1.305,0.553c0,0-5.582-2.084-6.17-1.233c-0.588,0.851,0.283,2.272,0.283,2.272c-3.243,2.253-6.075,4.537-7.466,8.27
								l1.114,1.908l0.565,2.089c0,0,6.2,0.9,9.729,0.1c0,0,0.415,2.388,1.279,2.112c0.864-0.276,4.401-5.758,4.401-5.758
								l4.569-11.014L296.02,372.365z"/>
							<path style="fill:#263238;" d="M300.504,381.712c0,0-2.264,8.588-3.108,7.398c-0.893-0.196-1.777-1.633-1.266-2.976
								l1.536-3.559L300.504,381.712z"/>
							<path style="fill:#407BFF;" d="M309.518,371.399c0,0-17.606-5.495-34.916,14.801c-0.847,0.823-1.972,1.298-3.153,1.332
								c-0.368,0.812-0.009,1.768,0.802,2.137c0.039,0.018,0.078,0.034,0.118,0.048c1.04-0.736,2.226-1.24,3.477-1.477
								c0,0,8.821,1.133,21.659-4.311c12.839-5.444,13.286-12.231,13.286-12.231l-1.457,1.697L309.518,371.399z"/>
							<path style="opacity:0.3;fill:#FFFFFF;" d="M271.479,387.514c1.181-0.034,2.306-0.509,3.153-1.332
								c17.31-20.297,34.916-14.802,34.916-14.802l-0.122,1.331l-37.969,16.094C271.301,388.387,271.309,387.926,271.479,387.514z"
								/>
							<path style="opacity:0.3;" d="M301.729,371.731c0,0-3.193,4.944,2.886,6.81c0,0-3.931,0.318-4.833-2.311
								C298.881,373.6,301.729,371.731,301.729,371.731z"/>
							<path style="fill:#263238;" d="M304.21,373.585c0.342,0.435,0.849,0.602,1.174,0.288c0.325-0.315,0.282-0.847-0.061-1.282
								c-0.343-0.435-0.849-0.602-1.168-0.298C303.838,372.599,303.858,373.129,304.21,373.585z"/>
						</g>
					</g>
					<path style="fill:#263238;" d="M298.007,376.863l0.517,0.666c0,0-3.626,4.939-5.798,4.552c-1.064-0.19-5.261,1.238-6.032,0.509
						C285.923,381.861,298.007,376.863,298.007,376.863z"/>
				</g>
				<path style="fill:#263238;" d="M273.148,387.006c0,0-8.277-3.11-8.827-2.385c-0.551,0.725,4.604,3.276,5.054,4.344
					c0.451,1.067-2.178,5.462-1.653,6.092c0.526,0.63,6.131-6.341,6.131-6.341l0.037-1.093L273.148,387.006z"/>
			</g>
			<g>
				<g>
					<g>
						<g id="freepik--fishes-1--inject-2_00000072260464245182046010000009202605399764008111_">
							<path style="fill:#263238;" d="M327.099,362.014c0,0,3.977,6.809,4.641,6.376c0.665-0.433,2.437-5.915,2.437-5.915
								l1.414,0.092c0,0,4.05,4.37,4.958,3.874c0.908-0.496,0.768-2.157,0.768-2.157c3.91-0.555,7.466-1.324,10.386-4.033
								l-0.138-2.205l0.434-2.12c0,0-5.134-3.59-8.647-4.461c0,0,0.702-2.32-0.194-2.462c-0.896-0.142-6.519,3.166-6.519,3.166
								l-9.03,7.787L327.099,362.014z"/>
							<path style="fill:#263238;" d="M327.292,351.648c0,0,5.882-6.655,6.101-5.212c0.71,0.576,0.854,2.258-0.206,3.227
								l-2.971,2.489L327.292,351.648z"/>
							<path style="fill:#407BFF;" d="M314.606,356.812c0,0,13.26,12.82,37.844,2.465c1.127-0.354,2.345-0.273,3.415,0.227
								c0.694-0.56,0.803-1.576,0.243-2.269c-0.027-0.033-0.055-0.065-0.084-0.096c-1.26,0.19-2.545,0.108-3.77-0.243
								c0,0-7.371-4.976-21.287-5.881c-13.916-0.905-17.365,4.957-17.365,4.957l2.064-0.861L314.606,356.812z"/>
							<path style="opacity:0.3;fill:#FFFFFF;" d="M355.829,359.507c-1.07-0.5-2.288-0.581-3.415-0.227
								c-24.584,10.354-37.844-2.465-37.844-2.465l0.707-1.135l41.152,2.683C356.381,358.807,356.167,359.216,355.829,359.507z"/>
							<path style="opacity:0.3;" d="M321.713,360.015c0,0,5.074-2.982,0.481-7.38c0,0,3.655,1.482,3.279,4.236
								C325.098,359.625,321.713,360.015,321.713,360.015z"/>
							<path style="fill:#263238;" d="M320.33,357.243c-0.111-0.542-0.488-0.92-0.92-0.785c-0.432,0.135-0.632,0.63-0.522,1.172
								c0.111,0.542,0.488,0.92,0.909,0.79C320.219,358.292,320.44,357.81,320.33,357.243z"/>
						</g>
					</g>
					<path style="fill:#263238;" d="M327.344,357.103l-0.162-0.827c0,0,5.459-2.783,7.225-1.462
						c0.866,0.648,5.256,1.258,5.617,2.256C340.386,358.067,327.344,357.103,327.344,357.103z"/>
				</g>
				<path style="fill:#263238;" d="M354.11,359.211c0,0,5.997,6.497,6.814,6.097c0.818-0.401-2.641-4.995-2.563-6.152
					c0.077-1.156,4.4-3.901,4.214-4.7c-0.187-0.799-8.327,2.91-8.327,2.91l-0.524,0.96L354.11,359.211z"/>
			</g>
			<g>
				<g>
					<g>
						<g>
							<g id="freepik--fishes-1--inject-2_00000052814593178403886900000006748032651238311608_">
								<path style="fill:#263238;" d="M266.067,313.268c0,0-3.382,7.352-2.627,7.656c0.755,0.304,6.407-1.435,6.407-1.435
									l0.755,1.243c0,0-1.289,5.978-0.337,6.449c0.951,0.471,2.266-0.625,2.266-0.625c2.769,2.96,5.509,5.496,9.507,6.356
									l1.773-1.414l2.037-0.884c0,0-0.006-6.43-1.342-9.896c0,0,2.364-0.776,1.955-1.612c-0.408-0.837-6.501-3.615-6.501-3.615
									l-11.864-3.005L266.067,313.268z"/>
								<path style="fill:#263238;" d="M274.895,307.327c0,0,9.058,1.025,7.975,2.059c-0.066,0.936-1.395,2.047-2.835,1.727
									l-3.842-1.032L274.895,307.327z"/>
								<path style="fill:#263238;" d="M263.082,299.703c0,0-2.968,18.697,20.214,33.265c0.961,0.738,1.611,1.81,1.82,3.004
									c0.879,0.254,1.797-0.253,2.051-1.132c0.012-0.042,0.023-0.085,0.031-0.127c-0.902-0.947-1.589-2.076-2.016-3.313
									c0,0-0.158-9.127-7.592-21.358c-7.434-12.231-14.393-11.678-14.393-11.678l1.94,1.228L263.082,299.703z"/>
								<path style="opacity:0.3;fill:#FFFFFF;" d="M285.094,335.944c-0.209-1.194-0.859-2.266-1.82-3.004
									c-23.182-14.568-20.214-33.265-20.214-33.265l1.37-0.074l21.979,36.174C286.008,335.996,285.538,336.056,285.094,335.944z"
									/>
								<path style="opacity:0.3;" d="M264.576,307.564c0,0,5.495,2.509,6.488-3.942c0,0,0.907,3.945-1.63,5.251
									C266.896,310.179,264.576,307.564,264.576,307.564z"/>
								<path style="fill:#263238;" d="M266.091,304.769c0.391-0.412,0.486-0.952,0.118-1.236c-0.368-0.284-0.902-0.161-1.293,0.252
									c-0.391,0.413-0.486,0.952-0.129,1.23C265.144,305.293,265.679,305.195,266.091,304.769z"/>
							</g>
						</g>
						<path style="fill:#263238;" d="M270.34,310.583l0.6-0.624c0,0,5.555,2.95,5.484,5.213c-0.035,1.109,2.038,5.159,1.412,6.051
							C277.209,322.114,270.34,310.583,270.34,310.583z"/>
					</g>
					<path style="fill:#263238;" d="M284.331,334.325c0,0-1.931,8.867-1.112,9.319c0.818,0.452,2.644-5.162,3.662-5.777
						c1.017-0.616,5.871,1.402,6.433,0.774c0.562-0.628-7.35-5.286-7.35-5.286l-1.115,0.125L284.331,334.325z"/>
				</g>
				<path style="opacity:0.3;fill:#FFFFFF;" d="M263.082,299.703c0,0-2.968,18.697,20.214,33.265c0.961,0.738,1.611,1.81,1.82,3.004
					c0.879,0.254,1.797-0.253,2.051-1.132c0.012-0.042,0.023-0.085,0.031-0.127c-0.902-0.947-1.589-2.076-2.016-3.313
					c0,0-0.158-9.127-7.592-21.358c-7.434-12.231-14.393-11.678-14.393-11.678l1.94,1.228L263.082,299.703z"/>
			</g>
			<g>
				<g>
					<g>
						<g>
							<g id="freepik--fishes-1--inject-2_00000117674565924362036730000017158425201832702600_">
								<path style="fill:#263238;" d="M359.546,378.244c0,0-3.904-5.768-4.465-5.347c-0.561,0.421-1.8,5.357-1.8,5.357
									l-1.251,0.002c0,0-3.826-3.614-4.597-3.124c-0.771,0.49-0.55,1.946-0.55,1.946c-3.413,0.719-6.502,1.605-8.917,4.164
									l0.251,1.935l-0.258,1.894c0,0,4.736,2.863,7.883,3.424c0,0-0.483,2.086,0.315,2.158c0.798,0.073,5.56-3.174,5.56-3.174
									l7.502-7.394L359.546,378.244z"/>
								<path style="fill:#263238;" d="M359.984,387.392c0,0-4.793,6.211-5.071,4.952c-0.659-0.466-0.885-1.94-0.008-2.857
									l2.473-2.368L359.984,387.392z"/>
								<path style="fill:#263238;" d="M370.862,382.095c0,0-12.44-10.521-33.5,0.049c-0.972,0.378-2.051,0.379-3.023,0
									c-0.579,0.534-0.615,1.436-0.081,2.014c0.026,0.028,0.052,0.054,0.08,0.08c1.099-0.242,2.237-0.244,3.337-0.007
									c0,0,6.789,3.953,19.107,3.934c12.318-0.019,15.014-5.388,15.014-5.388l-1.769,0.88L370.862,382.095z"/>
								<path style="opacity:0.3;fill:#FFFFFF;" d="M334.37,382.14c0.972,0.378,2.051,0.378,3.023,0
									c21.06-10.57,33.5-0.049,33.5-0.049l-0.556,1.042l-36.428,0.051C333.925,382.79,334.09,382.417,334.37,382.14z"/>
								<path style="opacity:0.3;" d="M364.41,379.69c0,0-4.297,2.926,0.009,6.533c0,0-3.309-1.091-3.139-3.541
									C361.45,380.232,364.41,379.69,364.41,379.69z"/>
								<path style="fill:#263238;" d="M365.792,382.051c0.129,0.471,0.484,0.782,0.857,0.638c0.373-0.144,0.52-0.592,0.391-1.064
									c-0.13-0.471-0.484-0.782-0.848-0.643C365.828,381.121,365.662,381.559,365.792,382.051z"/>
							</g>
						</g>
						<path style="fill:#263238;" d="M359.618,382.587l0.192,0.719c0,0-4.648,2.774-6.282,1.713c-0.801-0.52-4.706-0.8-5.083-1.658
							C348.066,382.503,359.618,382.587,359.618,382.587z"/>
					</g>
					<path style="fill:#263238;" d="M335.903,382.301c0,0-5.667-5.375-6.364-4.974c-0.697,0.401,2.621,4.248,2.62,5.271
						c0,1.023-3.649,3.697-3.438,4.39c0.211,0.693,7.168-3.054,7.168-3.054l0.405-0.877L335.903,382.301z"/>
				</g>
				<path style="opacity:0.3;fill:#FFFFFF;" d="M370.862,382.095c0,0-12.44-10.521-33.5,0.049c-0.972,0.378-2.051,0.379-3.023,0
					c-0.579,0.534-0.615,1.436-0.081,2.014c0.026,0.028,0.052,0.054,0.08,0.08c1.099-0.242,2.237-0.244,3.337-0.007
					c0,0,6.789,3.953,19.107,3.934c12.318-0.019,15.014-5.388,15.014-5.388l-1.769,0.88L370.862,382.095z"/>
			</g>
			<g>
				<g>
					<g>
						<g>
							<g id="freepik--fishes-1--inject-2_00000072987758991605376070000000126701470910524602_">
								<path style="fill:#263238;" d="M288.827,276.189c0,0-3.905-5.768-4.465-5.347c-0.561,0.421-1.8,5.357-1.8,5.357
									l-1.252,0.002c0,0-3.826-3.614-4.597-3.124c-0.771,0.491-0.55,1.946-0.55,1.946c-3.413,0.719-6.502,1.605-8.917,4.164
									l0.251,1.935l-0.258,1.894c0,0,4.736,2.863,7.883,3.424c0,0-0.483,2.086,0.315,2.158c0.798,0.073,5.559-3.174,5.559-3.174
									l7.502-7.394L288.827,276.189z"/>
								<path style="fill:#263238;" d="M289.265,285.337c0,0-4.793,6.211-5.071,4.952c-0.659-0.466-0.885-1.94-0.008-2.857
									l2.473-2.368L289.265,285.337z"/>
								<path style="fill:#263238;" d="M300.144,280.04c0,0-12.44-10.521-33.5,0.049c-0.972,0.379-2.051,0.379-3.023,0
									c-0.579,0.534-0.615,1.436-0.081,2.014c0.026,0.028,0.052,0.054,0.08,0.08c1.099-0.242,2.237-0.244,3.337-0.007
									c0,0,6.789,3.953,19.107,3.934c12.318-0.019,15.014-5.388,15.014-5.388l-1.769,0.88L300.144,280.04z"/>
								<path style="opacity:0.3;fill:#FFFFFF;" d="M263.652,280.085c0.972,0.378,2.051,0.378,3.023-0.001
									c21.06-10.57,33.5-0.049,33.5-0.049l-0.556,1.042l-36.428,0.051C263.206,280.735,263.371,280.362,263.652,280.085z"/>
								<path style="opacity:0.3;" d="M293.691,277.635c0,0-4.297,2.926,0.009,6.533c0,0-3.309-1.091-3.139-3.541
									C290.731,278.177,293.691,277.635,293.691,277.635z"/>
								<path style="fill:#263238;" d="M295.073,279.996c0.129,0.471,0.484,0.782,0.857,0.638c0.373-0.144,0.52-0.592,0.391-1.064
									c-0.13-0.471-0.484-0.782-0.848-0.643C295.109,279.065,294.943,279.504,295.073,279.996z"/>
							</g>
						</g>
						<path style="fill:#263238;" d="M288.899,280.532l0.192,0.719c0,0-4.648,2.774-6.282,1.713c-0.801-0.52-4.706-0.8-5.083-1.658
							C277.348,280.448,288.899,280.532,288.899,280.532z"/>
					</g>
					<path style="fill:#263238;" d="M265.184,280.245c0,0-5.667-5.375-6.364-4.974c-0.697,0.401,2.621,4.248,2.62,5.271
						c0,1.024-3.649,3.697-3.438,4.39c0.212,0.693,7.168-3.054,7.168-3.054l0.405-0.877L265.184,280.245z"/>
				</g>
				<path style="opacity:0.3;fill:#FFFFFF;" d="M300.144,280.04c0,0-12.44-10.521-33.5,0.049c-0.972,0.379-2.051,0.379-3.023,0
					c-0.579,0.534-0.615,1.436-0.081,2.014c0.026,0.028,0.052,0.054,0.08,0.08c1.099-0.242,2.237-0.244,3.337-0.007
					c0,0,6.789,3.953,19.107,3.934c12.318-0.019,15.014-5.388,15.014-5.388l-1.769,0.88L300.144,280.04z"/>
			</g>
			<g>
				<g>
					<g>
						<g>
							<g id="freepik--fishes-1--inject-2_00000078045890847180809000000001164436878110186414_">
								<path style="fill:#263238;" d="M317.225,401.484c0,0-6.377-2.8-6.628-2.146c-0.25,0.655,1.331,5.492,1.331,5.492
									l-1.058,0.668c0,0-5.164-1.019-5.555-0.194c-0.391,0.826,0.571,1.94,0.571,1.94c-2.505,2.427-4.647,4.823-5.327,8.276
									l1.243,1.504l0.791,1.74c0,0,5.533-0.101,8.495-1.303c0,0,0.703,2.022,1.417,1.659c0.714-0.364,3.013-5.648,3.013-5.648
									l2.408-10.254L317.225,401.484z"/>
								<path style="fill:#263238;" d="M322.47,408.991c0,0-0.746,7.81-1.652,6.893c-0.806-0.043-1.783-1.17-1.529-2.413l0.83-3.322
									L322.47,408.991z"/>
								<path style="fill:#263238;" d="M328.853,398.713c0,0-16.133-2.274-28.321,17.892c-0.621,0.838-1.534,1.413-2.558,1.611
									c-0.205,0.76,0.245,1.543,1.005,1.748c0.036,0.01,0.073,0.018,0.11,0.025c0.801-0.79,1.763-1.399,2.82-1.784
									c0,0,7.851-0.272,18.265-6.853c10.413-6.58,9.834-12.56,9.834-12.56l-1.028,1.688L328.853,398.713z"/>
								<path style="opacity:0.3;fill:#FFFFFF;" d="M297.998,418.196c1.024-0.198,1.937-0.773,2.558-1.611
									c12.189-20.166,28.322-17.892,28.322-17.892l0.084,1.178l-30.798,19.455C297.967,418.983,297.908,418.58,297.998,418.196z"
									/>
								<path style="opacity:0.3;" d="M322.111,400.115c0,0-2.077,4.766,3.489,5.523c0,0-3.381,0.839-4.543-1.324
									C319.896,402.151,322.111,400.115,322.111,400.115z"/>
								<path style="fill:#263238;" d="M324.539,401.377c0.361,0.33,0.826,0.404,1.065,0.083c0.239-0.321,0.125-0.779-0.236-1.109
									c-0.361-0.33-0.826-0.404-1.06-0.093C324.074,400.57,324.167,401.03,324.539,401.377z"/>
							</g>
						</g>
						<path style="fill:#263238;" d="M319.6,405.121l0.545,0.507c0,0-2.455,4.824-4.403,4.797c-0.955-0.013-4.409,1.831-5.185,1.305
							C309.78,411.204,319.6,405.121,319.6,405.121z"/>
					</g>
					<path style="fill:#263238;" d="M299.38,417.515c0,0-7.659-1.529-8.036-0.818c-0.376,0.711,4.481,2.198,5.026,3.064
						c0.545,0.866-1.118,5.073-0.57,5.547c0.548,0.474,4.439-6.404,4.439-6.404l-0.124-0.958L299.38,417.515z"/>
				</g>
				<path style="opacity:0.3;fill:#FFFFFF;" d="M328.853,398.713c0,0-16.133-2.274-28.321,17.892
					c-0.621,0.838-1.534,1.413-2.558,1.611c-0.205,0.76,0.245,1.543,1.005,1.748c0.036,0.01,0.073,0.018,0.11,0.025
					c0.801-0.79,1.763-1.399,2.82-1.784c0,0,7.851-0.272,18.265-6.853c10.413-6.58,9.834-12.56,9.834-12.56l-1.028,1.688
					L328.853,398.713z"/>
			</g>
		</g>
	</g>
</g>
</svg>
